<svg width="100" height="85" viewBox="0 0 100 85" fill="none" xmlns="http://www.w3.org/2000/svg">
<path fill-rule="evenodd" clip-rule="evenodd" d="M19.4774 47.0821C12.2779 54.415 7.87448 64.3094 7.87448 75.1952V84.6145H29.1946C27.1162 78.0561 26.002 71.1052 26.002 63.8962C26.002 58.9593 26.527 54.1361 27.5233 49.4885C24.7592 48.8791 22.0701 48.0736 19.4774 47.0821ZM47.247 84.6145H37.2405C34.9264 78.1181 33.6622 71.1465 33.6622 63.8962C33.6622 59.3518 34.155 54.9211 35.0978 50.6452L35.2585 50.6556L35.2907 50.449C36.1906 50.604 37.1012 50.7279 38.0226 50.8208C38.719 50.8415 39.4368 50.8519 40.1439 50.8519C49.304 50.8519 57.9499 48.7449 65.5994 45.0061C77.9951 38.6749 88.7193 27.7684 93.6369 14.3315L93.3371 14.662C95.0191 10.097 96.0904 5.25312 96.444 0.223324L96.4654 0.212986V0.181971L99.7972 0.00634766C99.7972 0.00634766 103.258 28.5017 81.1234 46.0389C92.5442 55.2723 99.7972 69.1223 99.7972 84.6145H77.6093V67.1599C79.3342 66.1477 80.4915 64.3196 80.4915 62.2333C80.4915 59.0626 77.8238 56.491 74.5347 56.491C71.2456 56.491 68.5778 59.0626 68.5778 62.2333C68.5778 64.3196 69.7456 66.1477 71.4705 67.1599V84.6145H53.3753V78.4589C55.1109 77.4571 56.2679 75.629 56.2679 73.5427C56.2679 70.372 53.6002 67.8002 50.3111 67.8002C47.022 67.8002 44.3544 70.372 44.3544 73.5427C44.3544 75.629 45.5114 77.4571 47.247 78.4589V84.6145ZM88.6873 1.03916C86.2875 24.8352 65.4601 43.4672 40.1439 43.4672C39.1475 43.4672 38.1512 43.4361 37.1656 43.3845C44.8794 21.5198 64.571 4.97418 88.6873 1.03916ZM0 23.1517C6.85671 32.7156 17.3025 39.718 29.4624 42.3414C31.198 37.074 33.5443 32.0753 36.437 27.4276C17.5918 20.1669 5.76392 21.4889 0 23.1517Z" fill="white"/>
<path fill-rule="evenodd" clip-rule="evenodd" d="M99.8031 0C99.8031 0 107.029 59.4533 33.9114 59.4533L35.2949 50.4472C61.6932 54.989 95.1849 31.7151 96.473 0.177279L99.8031 0Z" fill="white" fill-opacity="0.51"/>
</svg>
